0
SECTION
2
HEADER
9
$INSUNITS
70
4
9
$ACADVER
1
AC1014
9
$HANDSEED
5
FFFF
0
ENDSEC
0
SECTION
2
TABLES
0
TABLE
2
VPORT
5
8
100
AcDbSymbolTable
0
ENDTAB
0
TABLE
2
LTYPE
5
5
100
AcDbSymbolTable
0
LTYPE
5
14
100
AcDbSymbolTableRecord
100
AcDbLinetypeTableRecord
2
BYBLOCK
70
0
0
LTYPE
5
15
100
AcDbSymbolTableRecord
100
AcDbLinetypeTableRecord
2
BYLAYER
70
0
0
ENDTAB
0
TABLE
2
LAYER
5
2
100
AcDbSymbolTable
70
2
0
LAYER
5
50
100
AcDbSymbolTableRecord
100
AcDbLayerTableRecord
2
0
70
0
6
CONTINUOUS
0
ENDTAB
0
TABLE
2
STYLE
5
3
100
AcDbSymbolTable
70
1
0
STYLE
5
11
100
AcDbSymbolTableRecord
100
AcDbTextStyleTableRecord
2
STANDARD
70
0
0
ENDTAB
0
TABLE
2
VIEW
5
6
100
AcDbSymbolTable
70
0
0
ENDTAB
0
TABLE
2
UCS
5
7
100
AcDbSymbolTable
70
0
0
ENDTAB
0
TABLE
2
APPID
5
9
100
AcDbSymbolTable
70
2
0
APPID
5
12
100
AcDbSymbolTableRecord
100
AcDbRegAppTableRecord
2
ACAD
70
0
0
ENDTAB
0
TABLE
2
DIMSTYLE
5
A
100
AcDbSymbolTable
70
1
0
ENDTAB
0
TABLE
2
BLOCK_RECORD
5
1
100
AcDbSymbolTable
70
1
0
BLOCK_RECORD
5
1F
100
AcDbSymbolTableRecord
100
AcDbBlockTableRecord
2
*MODEL_SPACE
0
BLOCK_RECORD
5
1B
100
AcDbSymbolTableRecord
100
AcDbBlockTableRecord
2
*PAPER_SPACE
0
ENDTAB
0
ENDSEC
0
SECTION
2
BLOCKS
0
BLOCK
5
20
100
AcDbEntity
100
AcDbBlockBegin
2
*MODEL_SPACE
0
ENDBLK
5
21
100
AcDbEntity
100
AcDbBlockEnd
0
BLOCK
5
1C
100
AcDbEntity
100
AcDbBlockBegin
2
*PAPER_SPACE
0
ENDBLK
5
1D
100
AcDbEntity
100
AcDbBlockEnd
0
ENDSEC
0
SECTION
2
ENTITIES
0
LWPOLYLINE
5
100
100
AcDbEntity
8
0
100
AcDbPolyline
90
237
70
1
43
0.0
10
22.66129352594978
20
14.106591931343914
10
23.196737427560667
20
14.560105882896954
10
24.640996479517323
20
15.672165048767477
10
25.276487368619932
20
16.083674202670785
10
27.01159022948471
20
17.212604226876639
10
27.455695494902002
20
17.455945624273909
10
28.380117547392448
20
18.017527549954384
10
30.072322519371557
20
18.963116567721492
10
30.980871374686284
20
19.388113128606086
10
32.917737649794773
20
20.279919099497445
10
34.941590260390683
20
21.048932312980874
10
34.973661231006915
20
21.059193567753653
10
37.29577536863323
20
21.822009389296898
10
37.565363032586198
20
21.900506525271911
10
38.054717382288082
20
22.027695914115107
10
40.062497405334014
20
22.495455871411444
10
42.050872254679767
20
22.854461211572087
10
42.811464130037933
20
22.989231336523307
10
45.3564411687573
20
23.178308187651254
10
46.165315335662463
20
23.243016982252275
10
46.995368283760193
20
23.243764580440956
10
47.618633818988698
20
23.258162681744402
10
48.294970323942685
20
23.331814217503172
10
49.77205897450213
20
23.263120080276799
10
51.611618233815562
20
23.174525230193986
10
52.64330432902247
20
23.03021753637697
10
54.771010433833382
20
22.763620915957446
10
56.462046801394798
20
22.426100784906954
10
57.398999605459395
20
22.237372007000374
10
57.856723393707441
20
22.087833646768061
10
59.664215162124421
20
21.587200931651587
10
60.34934706027655
20
21.417665318178273
10
60.818882000436545
20
21.253203193822038
10
61.700948631613166
20
20.933231036019926
10
62.339937844901392
20
20.67772417178865
10
63.488611826582016
20
20.209662837115566
10
64.408960947280335
20
19.88318779771976
10
64.693183451005808
20
19.69489473199166
10
65.288183551706723
20
19.432164913796115
10
66.045115294832016
20
19.057714148686934
10
66.787049895084337
20
18.688898011503515
10
67.585727850030352
20
18.245805298127117
10
68.329111443649268
20
17.805270464320788
10
68.77298434123675
20
17.546221524225544
10
69.535076373489289
20
17.091404871665468
10
70.5252862888387
20
16.439843190617729
10
70.88262014967269
20
16.19494241540194
10
71.069292526306526
20
15.99160433227614
10
71.599619796295272
20
15.61884944638196
10
71.871278662619915
20
15.505135454983145
10
72.153029863571106
20
15.304636116156416
10
72.483230663929191
20
14.990210676370543
10
73.259933987848939
20
14.411159714671021
10
73.676121015760685
20
14.120303865104898
10
74.331399529893787
20
13.500682396958979
10
74.80821947179497
20
13.082045801786176
10
75.445353645904987
20
12.52162679218385
10
76.006392062009837
20
11.970601549251016
10
76.906702592527438
20
11.100300808815486
10
77.133508960661601
20
10.788575529865028
10
77.565333735300925
20
10.38833024164447
10
77.758361767929628
20
10.268613440788897
10
77.828834708090341
20
10.137880359042004
10
78.136760283704263
20
9.846535045648924
10
79.122993060963282
20
8.7333304122110338
10
80.168735543938666
20
7.3001258232498429
10
80.561888822669857
20
6.812801867354791
10
81.028799498539769
20
6.1186507401026082
10
81.504853198068702
20
5.429111389978444
10
81.782529269138593
20
5.0753545997173966
10
82.064534866381138
20
4.4950497888791698
10
82.505766073552593
20
3.8356890039276514
10
82.742810257489324
20
3.4441623337526432
10
83.063313223342888
20
2.8455781815233538
10
83.392856987908488
20
2.2389383558966309
10
83.604164153737884
20
1.9510700711084019
10
84.02865188191663
20
1.0477546947461487
10
84.38674818561924
20
0.30362465642490188
10
84.864428672770075
20
-0.82565888871204329
10
85.053663938736022
20
-1.3058098975455308
10
85.645903062583301
20
-2.7531648216608984
10
86.127754866311989
20
-4.2883074647369561
10
86.315380998995082
20
-4.9040770416869153
10
86.68969966305967
20
-6.1019362919958979
10
86.981230906936503
20
-7.5073661057980985
10
87.199241967943081
20
-8.4735810454430158
10
87.343151654558909
20
-9.4186005445745931
10
87.632715810601695
20
-11.377100530929809
10
87.772108160625947
20
-12.358069265519255
10
87.840664808666432
20
-13.267130062107043
10
87.890041238388434
20
-14.294441915165057
10
87.89298425093294
20
-15.71584188646202
10
87.892521106376918
20
-15.791673160920396
10
87.900226238448539
20
-16.670500977028912
10
87.867213868326843
20
-17.593072654134563
10
87.792223043156838
20
-19.275589551574043
10
87.652139484631263
20
-21.00642336589036
10
87.51748488224473
20
-21.865069699765264
10
87.19887236816993
20
-23.630049298955214
10
87.113969647284847
20
-24.093274459580748
10
86.872298580880425
20
-25.071711209380204
10
86.331664391648161
20
-27.484562118984659
10
85.996202816551147
20
-28.456243182840417
10
85.512757505765393
20
-29.792805276715356
10
84.967830381026914
20
-31.258128240502224
10
84.184534062708252
20
-33.001765866512962
10
84.149308159003255
20
-33.088431796833831
10
84.123401347068963
20
-33.139281488565999
10
83.243592627380252
20
-35.034727098902103
10
82.776975661629109
20
-35.750345218835761
10
81.53420880173114
20
-37.852727450420637
10
81.276764292312976
20
-38.301939669595427
10
81.167981670825014
20
-38.443178934802212
10
79.395418169018342
20
-40.912056206967542
10
78.370593469981586
20
-42.173968592941279
10
77.601371324820548
20
-43.0688660140042
10
76.77989208281987
20
-44.004214030145391
10
76.087642836576023
20
-44.665432161162698
10
75.212715608415238
20
-45.544760874929587
10
73.819079414775814
20
-46.751413878642566
10
72.738521195530637
20
-47.686474525825545
10
71.449384690534046
20
-48.701039427351553
10
70.23877587212597
20
-49.578921540301046
10
68.665709511510883
20
-50.587584414646585
10
67.067352098548952
20
-51.532663299615614
10
65.871383026101952
20
-52.170164697012709
10
65.088629753565115
20
-52.552443682060286
10
64.24950471840242
20
-52.971438997484938
10
63.386029650648126
20
-53.318795895729004
10
62.136840604670944
20
-53.847956551601285
10
60.581265651716009
20
-54.381580671842102
10
59.928658458591677
20
-54.596217088436248
10
59.292481996361616
20
-54.780974123815838
10
57.446785759031407
20
-55.3309410337393
10
55.963644947269763
20
-55.653426234993653
10
55.129564578657657
20
-55.823073507357435
10
54.462675352418835
20
-55.962594989033398
10
52.492807699423665
20
-56.238981982309184
10
51.816182625342975
20
-56.306505255225154
10
50.139715265259468
20
-56.432773901696052
10
49.695964605991385
20
-56.479467014081301
10
49.480050118117333
20
-56.461003738553984
10
48.52784544840037
20
-56.4852749158565
10
48.450611281168065
20
-56.518940164575824
10
48.262290570264483
20
-56.558505823682026
10
47.834106743439463
20
-56.70644338978726
10
47.060692630019531
20
-56.644813680717604
10
46.747810497301685
20
-56.623395509786086
10
46.556483067022263
20
-56.613179169111191
10
44.464380283218752
20
-56.486593223610349
10
44.223297642803125
20
-56.461533657163201
10
43.665226628930213
20
-56.376177642979044
10
41.588783125828243
20
-56.093654390858376
10
41.36959627122269
20
-56.070758371319386
10
40.991967872692669
20
-55.97863304869685
10
38.872267594860361
20
-55.556509643704658
10
38.272493981880139
20
-55.396677881218096
10
36.508619851008312
20
-54.892702967255062
10
35.815274320471794
20
-54.689592303510025
10
35.164851979086116
20
-54.450191650930471
10
32.690286152815631
20
-53.499421614684991
10
32.246067675108591
20
-53.324632216174457
10
31.745785565666473
20
-53.121853848115279
10
31.374835985440235
20
-52.942798087292488
10
30.659442001717228
20
-52.568558583921671
10
29.271014694075856
20
-51.874031504682762
10
29.068602592116164
20
-51.675388068243493
10
28.032777729800671
20
-51.183287210636259
10
27.41359099404211
20
-50.831345866094011
10
26.377088662949177
20
-50.136195765861757
10
25.363650386306023
20
-49.470733131399086
10
24.92282351200485
20
-49.129445982070223
10
24.082107172471453
20
-48.540315635856814
10
23.40343232875923
20
-47.952578291834634
10
22.498921685047417
20
-47.225339729486855
10
21.596447597380365
20
-46.424215210704951
10
20.752883057404926
20
-45.643617254543322
10
20.073063794154042
20
-45.021106264118728
10
19.282870314498261
20
-44.12619673368792
10
19.017106263264779
20
-43.845779614476115
10
18.856595469320453
20
-43.683506881030183
10
17.955202146079532
20
-42.802541161980024
10
17.571157958057363
20
-42.303456921955956
10
16.714583250989374
20
-41.229635094424808
10
16.486931094604177
20
-40.892489720994917
10
16.247500070661584
20
-40.681049071569426
10
16.145383791430636
20
-40.478433747867193
10
15.472594692744861
20
-39.53474678623347
10
15.199052888629733
20
-39.151344806724374
10
14.955681705465846
20
-38.823987135297571
10
14.156624742884494
20
-37.521836032257589
10
13.65275899565021
20
-36.662310523124894
10
13.169011915687774
20
-35.775899115000257
10
12.835824952083165
20
-35.169833277087264
10
12.177622848718945
20
-33.826288190165407
10
11.631837643522381
20
-32.605769188706667
10
11.389595263826848
20
-32.027628213642231
10
11.019835042205113
20
-31.232450456053297
10
10.479506414052208
20
-29.616674034550542
10
10.127294142319901
20
-28.711661990482558
10
9.9920841908197211
20
-28.396225145436851
10
9.8064272888339552
20
-27.651986576745436
10
9.4009480515080597
20
-25.968566381751398
10
9.1457812242303902
20
-24.847239741226595
10
8.9653005804208341
20
-23.77945751564933
10
8.6756624364054993
20
-22.190765943252867
10
8.5076784059817498
20
-20.688560405251767
10
8.2497310986648777
20
-17.3316924729581
10
8.1966885537228649
20
-16.739915955088211
10
8.1969491045415932
20
-16.140070998067703
10
8.227647531685788
20
-15.469658222137856
10
8.4397294790727155
20
-11.974881177389367
10
8.5257783921776138
20
-11.200546455711409
10
9.0166127755074186
20
-8.5475757713635687
10
9.1657976124515983
20
-7.7096171142913184
10
9.6512616620217919
20
-5.8117117491709802
10
9.811792830073049
20
-5.1732305596535237
10
11.271773284611461
20
-1.0598903671000377
10
11.276978186884863
20
-1.0450050988706068
10
11.281928405102516
20
-1.0338587295098272
10
11.283785508347979
20
-1.0300664241867303
10
12.267640872038861
20
0.96321346299120125
10
12.935629507983631
20
2.3302357238367466
10
13.547869854533669
20
3.3989731942685002
10
14.463459122221513
20
4.9685191559885746
10
15.10118310747959
20
5.9099425877442702
10
15.634300956145466
20
6.6932007475438082
10
16.209768285718958
20
7.4472323925808235
10
16.504856082210885
20
7.7928183188429534
10
17.288523174264014
20
8.8071448498771474
10
17.388873960591063
20
8.9320534232295756
10
17.839875566565286
20
9.417603517129832
10
18.219096846502872
20
9.8581701041678436
10
20.004574328560377
20
11.757088110779453
10
20.417234890640785
20
12.138867672166306
10
21.261569324357321
20
12.917689673660252
10
22.248387893977444
20
13.818832401757216
0
LWPOLYLINE
5
101
100
AcDbEntity
8
0
100
AcDbPolyline
90
152
70
1
43
0.0
10
29.089367035296053
20
21.310037233556102
10
26.519219413114477
20
19.868333698476203
10
24.241459694471878
20
18.482013155827833
10
23.667852531056717
20
18.083513126411145
10
21.217349260483189
20
16.178716485307223
10
19.407323939590281
20
14.739184333656333
10
18.30521258682953
20
13.651876085078703
10
15.604501189887646
20
10.896430369209202
10
15.302153314295596
20
10.537429927587915
10
12.992112613605858
20
7.5109721265455489
10
11.602009700342732
20
5.4453238946472871
10
11.589675631335531
20
5.4266889553845772
10
11.50687721091526
20
5.2815151027567717
10
9.848681416473033
20
2.0683333888539068
10
9.0111491792295197
20
0.37203547926777158
10
8.6550135667614256
20
-0.56476970491637513
10
7.4923364529230323
20
-3.9046900661583539
10
6.7115255126570261
20
-6.7429527240196805
10
6.3362649682812542
20
-8.3964819652069345
10
6.0689885044302239
20
-10.32788053056089
10
5.9535798307154
20
-11.683484465155228
10
5.6374123851654376
20
-14.670920185188802
10
5.6135746751136431
20
-15.7998213441478
10
5.6588574367759348
20
-17.778208332988015
10
5.7465511380411236
20
-20.628660738947879
10
5.7495888606479646
20
-20.676397368865047
10
6.0378714825004396
20
-22.356110568388136
10
6.6002964049097894
20
-25.872515285722638
10
6.6155853980884025
20
-25.936720348510672
10
6.6609151650991745
20
-26.126422963109356
10
7.2305376351297976
20
-28.182251730472391
10
8.1519032351641982
20
-31.039358406363139
10
8.34044253755531
20
-31.62259795946806
10
8.4883216622627007
20
-32.025013687958847
10
10.055771112051197
20
-35.368788587358964
10
10.597181524075181
20
-36.433970385216057
10
11.088497762908657
20
-37.442285758538297
10
12.277689848871663
20
-39.466880821543199
10
12.480370449668278
20
-39.777515693133665
10
13.851451259145254
20
-41.650874180403406
10
14.729343789842277
20
-42.860666679679433
10
16.073069412849701
20
-44.508853826843961
10
16.936482974172804
20
-45.501075750523796
10
17.582105115958782
20
-46.128208655057975
10
19.552851937181881
20
-48.035739433817106
10
21.151751269876474
20
-49.423374295243107
10
21.737214001464885
20
-49.913740276801242
10
22.305742001058782
20
-50.359280408939746
10
24.857630410359182
20
-52.158279192588665
10
25.950809037940672
20
-52.867008275482441
10
28.492898099488052
20
-54.247668767016847
10
30.618751121751103
20
-55.377011822345978
10
31.818584675436206
20
-55.859282134737782
10
33.345304512892241
20
-56.597156727919852
10
33.609036496823514
20
-56.700791131451432
10
34.150154055592296
20
-56.888662202469398
10
37.507989121744266
20
-57.985053009711784
10
38.748741612652445
20
-58.300039563514588
10
40.941756808872256
20
-58.787384766341802
10
43.249068886400607
20
-59.185213972909089
10
44.336109761196106
20
-59.337769184604177
10
45.579357641889274
20
-59.495028186106367
10
47.406577360289816
20
-59.586273840476771
10
48.010128169387308
20
-59.400065587187704
10
48.089450819467345
20
-59.387659525956096
10
48.302604267108407
20
-59.139059708650933
10
48.489618315069322
20
-59.367045809694446
10
49.180480826615195
20
-59.345511505331984
10
50.501363810733778
20
-59.165318385982374
10
52.180241240976805
20
-59.045988626931759
10
53.814434220617045
20
-58.742476404826142
10
55.122742065594544
20
-58.57541807942097
10
56.208314989526386
20
-58.349076181344572
10
58.982531891305939
20
-57.572345808863368
10
60.05609841055805
20
-57.274427389582755
10
62.109436648468652
20
-56.524882110604679
10
63.148397440726754
20
-56.118675875427314
10
67.853407646549911
20
-53.875446238060348
10
68.938825287126107
20
-53.316594250714118
10
71.345866014043892
20
-51.627140610584803
10
72.386320560093736
20
-50.943550136082791
10
74.520610814655157
20
-49.357263280742117
10
75.340959228651215
20
-48.690472602395587
10
77.36197252231193
20
-46.775379068109153
10
79.706985215767062
20
-44.285724636739083
10
80.197770410111403
20
-43.750586905243026
10
80.501846327539099
20
-43.390887338484077
10
84.442969830908808
20
-37.739712709029902
10
84.51735507447026
20
-37.619535849649417
10
85.742785497870187
20
-35.196789645651293
10
86.340390438930086
20
-33.993011405630874
10
86.349091839479996
20
-33.9714699971111
10
87.966193028703756
20
-29.58717693801529
10
88.027710581777797
20
-29.40620072484688
10
88.653342262364731
20
-27.070136536281495
10
88.73865810553994
20
-26.707311364342715
10
89.272538777264074
20
-24.247749238964225
10
89.831569926812563
20
-20.664924641827366
10
89.886647279985823
20
-20.191309242653887
10
89.975916913599448
20
-18.696177674837596
10
89.999476067169127
20
-15.467577875237568
10
89.864606062721592
20
-13.584643963102822
10
89.809527530002782
20
-12.929177223744402
10
89.290798921972822
20
-8.8481056034160694
10
89.195279808680098
20
-8.2051390054205164
10
88.339032707401159
20
-4.6408576150263423
10
88.236541545217889
20
-4.3235172568229716
10
88.170651838846226
20
-4.0174092199163027
10
87.099721309383085
20
-0.97514943052343428
10
86.887608423031551
20
-0.3909752979822142
10
86.66505571665931
20
0.081777642297828704
10
85.389881477823366
20
2.8905583918874749
10
84.991507003910755
20
3.646861513700868
10
82.775246796876175
20
7.3521752762427308
10
82.576134607034035
20
7.6489157893996618
10
82.539084392305966
20
7.7112115721879952
10
80.50740600613095
20
10.405894977637152
10
80.497261737566561
20
10.418019335764253
10
80.214912779987145
20
10.739522590734353
10
78.466691189143447
20
12.691433319975133
10
77.798389803247986
20
13.365667977209878
10
76.251513252728699
20
14.833287824370686
10
76.193005689377713
20
14.887910280734699
10
76.117469817800185
20
14.953070431811224
10
75.993638584530686
20
15.054965099886275
10
73.653107230262847
20
16.924323200248089
10
71.442473066682751
20
18.616988923771093
10
71.165914366549515
20
18.785425974010966
10
68.631745791446917
20
20.281432920023615
10
65.751709212201661
20
21.795955760268875
10
65.203553550815073
20
22.05059116552491
10
63.260810216267906
20
22.844024340311687
10
60.694530882391085
20
23.772012911308934
10
60.086485012429094
20
23.96248102669858
10
59.315157564338222
20
24.192562267146762
10
57.106447761771058
20
24.723296848849859
10
55.430420355433725
20
25.006766893725306
10
53.023250369011052
20
25.375739646064027
10
50.373550562039789
20
25.690824676149386
10
49.879071921651416
20
25.706989015778138
10
47.358147940812188
20
25.666282753833073
10
45.934844120329963
20
25.659989206682248
10
43.938858290850106
20
25.542473152033427
10
43.106107547613647
20
25.463249926666638
10
39.147290080325348
20
24.801518395330653
10
38.40663722982022
20
24.655752891260722
10
38.064192135756599
20
24.586556480678023
10
36.318401456925848
20
24.09442798470775
10
34.699525736133367
20
23.573005446392635
10
32.186503328073528
20
22.632283320442177
10
29.898640718617237
20
21.722806448924608
10
29.611648463689441
20
21.579319870051194
0
ENDSEC
0
SECTION
2
OBJECTS
0
DICTIONARY
5
C
100
AcDbDictionary
3
ACAD_GROUP
350
D
3
ACAD_MLINESTYLE
350
17
0
DICTIONARY
5
D
100
AcDbDictionary
0
DICTIONARY
5
1A
330
C
100
AcDbDictionary
0
DICTIONARY
5
17
100
AcDbDictionary
0
ENDSEC
0
EOF
