0
SECTION
2
HEADER
9
$INSUNITS
70
4
9
$ACADVER
1
AC1014
9
$HANDSEED
5
FFFF
0
ENDSEC
0
SECTION
2
TABLES
0
TABLE
2
VPORT
5
8
100
AcDbSymbolTable
0
ENDTAB
0
TABLE
2
LTYPE
5
5
100
AcDbSymbolTable
0
LTYPE
5
14
100
AcDbSymbolTableRecord
100
AcDbLinetypeTableRecord
2
BYBLOCK
70
0
0
LTYPE
5
15
100
AcDbSymbolTableRecord
100
AcDbLinetypeTableRecord
2
BYLAYER
70
0
0
ENDTAB
0
TABLE
2
LAYER
5
2
100
AcDbSymbolTable
70
2
0
LAYER
5
50
100
AcDbSymbolTableRecord
100
AcDbLayerTableRecord
2
0
70
0
6
CONTINUOUS
0
ENDTAB
0
TABLE
2
STYLE
5
3
100
AcDbSymbolTable
70
1
0
STYLE
5
11
100
AcDbSymbolTableRecord
100
AcDbTextStyleTableRecord
2
STANDARD
70
0
0
ENDTAB
0
TABLE
2
VIEW
5
6
100
AcDbSymbolTable
70
0
0
ENDTAB
0
TABLE
2
UCS
5
7
100
AcDbSymbolTable
70
0
0
ENDTAB
0
TABLE
2
APPID
5
9
100
AcDbSymbolTable
70
2
0
APPID
5
12
100
AcDbSymbolTableRecord
100
AcDbRegAppTableRecord
2
ACAD
70
0
0
ENDTAB
0
TABLE
2
DIMSTYLE
5
A
100
AcDbSymbolTable
70
1
0
ENDTAB
0
TABLE
2
BLOCK_RECORD
5
1
100
AcDbSymbolTable
70
1
0
BLOCK_RECORD
5
1F
100
AcDbSymbolTableRecord
100
AcDbBlockTableRecord
2
*MODEL_SPACE
0
BLOCK_RECORD
5
1B
100
AcDbSymbolTableRecord
100
AcDbBlockTableRecord
2
*PAPER_SPACE
0
ENDTAB
0
ENDSEC
0
SECTION
2
BLOCKS
0
BLOCK
5
20
100
AcDbEntity
100
AcDbBlockBegin
2
*MODEL_SPACE
0
ENDBLK
5
21
100
AcDbEntity
100
AcDbBlockEnd
0
BLOCK
5
1C
100
AcDbEntity
100
AcDbBlockBegin
2
*PAPER_SPACE
0
ENDBLK
5
1D
100
AcDbEntity
100
AcDbBlockEnd
0
ENDSEC
0
SECTION
2
ENTITIES
0
LWPOLYLINE
5
100
100
AcDbEntity
8
0
100
AcDbPolyline
90
237
70
1
43
0.0
10
-81.504848201621883
20
5.429132538576015
10
-81.028792694354209
20
6.1186747635381655
10
-80.561888558770733
20
6.81281537379986
10
-80.168743188317364
20
7.3001328527528404
10
-79.122998765006614
20
8.7333421207982926
10
-78.136787414419203
20
9.8465182693287296
10
-77.828838352934312
20
10.137887355797899
10
-77.758361736304892
20
10.26862691644045
10
-77.565324025389245
20
10.388349835181918
10
-77.13351210538994
20
10.788588538443094
10
-76.906702840681817
20
11.100317066004115
10
-76.006386433758038
20
11.970626348988116
10
-75.445357270743287
20
12.521639839590271
10
-74.808220782505103
20
13.082060181073752
10
-74.33141067760539
20
13.500687985708186
10
-73.676125205269315
20
14.120312840833565
10
-73.259930389487124
20
14.411177970641781
10
-72.483241200634652
20
14.990218828647395
10
-72.153039335264296
20
15.30464260644999
10
-71.871279087518204
20
15.505150223615498
10
-71.599619407371264
20
15.618859696372397
10
-71.069295660331846
20
15.99160739376703
10
-70.882620808443292
20
16.194947683908843
10
-70.525279762846708
20
16.439853105666977
10
-69.535095793772456
20
17.091399400160292
10
-68.772976136101917
20
17.546229950184379
10
-68.329121312436484
20
17.805270540406642
10
-67.585730338734976
20
18.245816020870137
10
-66.78704273656794
20
18.688915246706454
10
-66.045118208075536
20
19.057723442719066
10
-65.288202723333924
20
19.432166154371902
10
-64.693192156069784
20
19.694902430484341
10
-64.408961026736478
20
19.883198302567301
10
-63.48858842706386
20
20.209679650464381
10
-62.339940249761568
20
20.677731146627849
10
-61.700943013841396
20
20.933244447455245
10
-60.818885048850518
20
21.253216686722901
10
-60.349346158223184
20
21.417679762154652
10
-59.664211291087163
20
21.587216081447732
10
-57.856730003431032
20
22.08784536489679
10
-57.39900111105154
20
22.237385368543684
10
-56.462029912197586
20
22.426115517163062
10
-54.771018547165149
20
22.763624392649398
10
-52.643272854172416
20
23.030227659656969
10
-51.611614262637147
20
23.174537234166358
10
-49.772084460540697
20
23.263127663264203
10
-48.294971910850776
20
23.331821134981677
10
-47.618633818988698
20
23.25817458148558
10
-46.995366800428712
20
23.243778804640407
10
-46.165315348035023
20
23.24302794848257
10
-45.356438529610521
20
23.178318622607812
10
-42.811465107294204
20
22.989237357235158
10
-42.05084237404904
20
22.854461877471905
10
-40.062496645027892
20
22.495466615332752
10
-38.0547314804328
20
22.027701329857805
10
-37.565361046326046
20
21.9005065073687
10
-37.295763331959478
20
21.822005618731243
10
-34.973661261535256
20
21.059203044240014
10
-34.941590419896073
20
21.048941826496378
10
-32.91773818214088
20
20.279921505136439
10
-30.980873640166845
20
19.388119442038171
10
-30.072320809085365
20
18.963123779805404
10
-28.38011419802179
20
18.01753390441603
10
-27.455695474583344
20
17.455952346205692
10
-27.011593165677759
20
17.212612149683007
10
-25.276485900850258
20
16.083683739413949
10
-24.640995012223694
20
15.672172751726324
10
-23.196740130940793
20
14.560110345605494
10
-22.661292337613407
20
14.106595501626952
10
-22.24838839168056
20
13.818833025328461
10
-21.261568774776499
20
12.917688284604463
10
-20.417237274826576
20
12.138867672166306
10
-20.00457600956176
20
11.757090425889805
10
-18.2190908123562
20
9.8581712136177337
10
-17.839873479496926
20
9.4176081717386086
10
-17.388874525420562
20
8.9320600680062601
10
-17.288506852522403
20
8.8071293906956978
10
-16.504858580642306
20
7.7928183336754744
10
-16.209768951011156
20
7.4472311428856006
10
-15.63430101359733
20
6.6932074957707952
10
-15.101180310575984
20
5.9099468392916918
10
-14.463460132677817
20
4.968526253976119
10
-13.547868722636021
20
3.3989694572376896
10
-12.935632326551307
20
2.3302377769880893
10
-12.267640998310544
20
0.9632101923593086
10
-11.283770829439344
20
-1.0300932084905698
10
-11.281918287529642
20
-1.0338762055061461
10
-11.276980348669234
20
-1.0449949158003378
10
-11.271788355322265
20
-1.0598434213145669
10
-9.8117945284147154
20
-5.1732306704217752
10
-9.651266255493713
20
-5.8116859398563641
10
-9.1657925984143382
20
-7.7096185566530409
10
-9.016612451976096
20
-8.5475622174441632
10
-8.5257830071463818
20
-11.200553234896343
10
-8.4397362043492983
20
-11.974876762252983
10
-8.2276470822248822
20
-15.469681802832865
10
-8.19694809927576
20
-16.140075876804254
10
-8.1966875658841101
20
-16.739902399032182
10
-8.2497289519020445
20
-17.331667133619682
10
-8.5076792764334748
20
-20.688574833689756
10
-8.6756616197775198
20
-22.190769630855037
10
-8.9652983797862777
20
-23.779436337354902
10
-9.1457840597672799
20
-24.847251783667801
10
-9.4009467943091636
20
-25.968554455594692
10
-9.8064345091589615
20
-27.652006696726737
10
-9.9920829969763041
20
-28.396219872796372
10
-10.127291884308573
20
-28.711644594847257
10
-10.479489902440193
20
-29.616626337386979
10
-11.01983676765331
20
-31.23245216677201
10
-11.389607506451346
20
-32.027646895856932
10
-11.631843585572938
20
-32.605777416124965
10
-12.177618806324968
20
-33.826273574106331
10
-12.835843168977618
20
-35.169866236902998
10
-13.169018998321846
20
-35.775910586268516
10
-13.65275644108884
20
-36.662308416154481
10
-14.156614208953226
20
-37.521815147359199
10
-14.955690541133325
20
-38.823997700521787
10
-15.199053035621144
20
-39.151345645533794
10
-15.472592375947734
20
-39.534736470405669
10
-16.145393170409044
20
-40.478442867976419
10
-16.247505567433759
20
-40.681055103111312
10
-16.48693067538105
20
-40.892489209144081
10
-16.714574322792483
20
-41.229621874481822
10
-17.571174472007588
20
-42.303476539083391
10
-17.955206853678483
20
-42.802549628032615
10
-18.856576227445508
20
-43.68348603662546
10
-19.017107405466234
20
-43.845777067528871
10
-19.282902606625786
20
-44.126228956404113
10
-20.073072110458725
20
-45.021114396372035
10
-20.752868945643726
20
-45.643605913245004
10
-21.596474357541044
20
-46.42424216100941
10
-22.498923291586447
20
-47.22534440952505
10
-23.40346228831017
20
-47.952600697273482
10
-24.082111965312855
20
-48.54031551783941
10
-24.922800014901338
20
-49.129424062590743
10
-25.363643490102792
20
-49.470727495138355
10
-26.37712835679465
20
-50.136216826896799
10
-27.413592888421473
20
-50.831343014302675
10
-28.032759716936742
20
-51.183270976274372
10
-29.068606239732834
20
-51.675383204894707
10
-29.271021449611272
20
-51.874028996714671
10
-30.659482029569887
20
-52.568574478956592
10
-31.374850921609006
20
-52.942800617930658
10
-31.745787368350452
20
-53.121848130522615
10
-32.24605041274642
20
-53.324622682084375
10
-32.69025291528785
20
-53.499407707125215
10
-35.16488066444164
20
-54.450200346528121
10
-35.815279735804751
20
-54.689588282141735
10
-36.508601239772254
20
-54.892690260234467
10
-38.27251155264333
20
-55.396679061391779
10
-38.872255418503954
20
-55.556506074468992
10
-40.992002675352907
20
-55.978635481872239
10
-41.36961124576974
20
-56.070755521851282
10
-41.588786159227489
20
-56.093650709565225
10
-43.665268765341622
20
-56.376182578489562
10
-44.223308196329171
20
-56.4615328037724
10
-44.464378047051923
20
-56.486591175558267
10
-46.556504777505374
20
-56.613174637214286
10
-46.747821678135217
20
-56.623391504570577
10
-47.060688669050492
20
-56.644808730417182
10
-47.834114930807971
20
-56.706439667775406
10
-48.262304822260489
20
-56.558500026715805
10
-48.450619952741093
20
-56.5189328880031
10
-48.527851720695239
20
-56.485268128741296
10
-49.480070731016752
20
-56.460996602895115
10
-49.695979022610068
20
-56.479462035815054
10
-50.139716635883069
20
-56.432767774414842
10
-51.816206509644559
20
-56.306497268900344
10
-52.492807185745136
20
-56.2389792153703
10
-54.462700260714414
20
-55.962592281795082
10
-55.129575815823316
20
-55.823069129546653
10
-55.963641184566328
20
-55.65342552642953
10
-57.446801713585089
20
-55.330933836318287
10
-59.292465779294041
20
-54.780975737079132
10
-59.928668221459922
20
-54.596210370825453
10
-60.581306562947148
20
-54.381564091598989
10
-62.136850230833289
20
-53.847950352296543
10
-63.386054235510613
20
-53.31878297334741
10
-64.249516113985976
20
-52.971431344522443
10
-65.088639290308279
20
-52.552438913688704
10
-65.871390693645779
20
-52.17015561806214
10
-67.067364048214444
20
-51.532653642686157
10
-68.665733169670176
20
-50.587571785117682
10
-70.238784904717036
20
-49.578915243001951
10
-71.449399833483255
20
-48.701028075155186
10
-72.738530459095159
20
-47.686468940839717
10
-73.819077855534502
20
-46.751415478624097
10
-75.212726185539481
20
-45.544751609538281
10
-76.087650689210776
20
-44.665427696102157
10
-76.77990224126755
20
-44.004207275640645
10
-77.601382562808851
20
-43.068853603267371
10
-78.370600912005685
20
-42.173960582462755
10
-79.395426146608159
20
-40.912050616722652
10
-81.168003157230103
20
-38.443156525298257
10
-81.276774024828867
20
-38.301932650685167
10
-81.53419533972334
20
-37.852757451249019
10
-82.776975457591604
20
-35.750335712558737
10
-83.243599045523311
20
-35.034714548951975
10
-84.123406329257733
20
-33.139276021191478
10
-84.149318342177466
20
-33.088416072753127
10
-84.184551065400441
20
-33.001733373888605
10
-84.967837059058397
20
-31.258116319573269
10
-85.512767042508557
20
-29.792793355786401
10
-85.996212353294311
20
-28.456232757334348
10
-86.331669080032526
20
-27.484544805921249
10
-86.872312731865847
20
-25.071677949529793
10
-87.113977950995562
20
-24.093256875995735
10
-87.198880657855796
20
-23.630041520120535
10
-87.51749562150691
20
-21.865048070570911
10
-87.652146671697992
20
-21.006425566271588
10
-87.792224355566262
20
-19.275572265017267
10
-87.867216906532036
20
-17.593034187809891
10
-87.900225628195159
20
-16.670487580990418
10
-87.892530175924776
20
-15.791659993092029
10
-87.892993453159903
20
-15.715840341417234
10
-87.89004366512674
20
-14.294428658293336
10
-87.840672967169851
20
-13.267105406798468
10
-87.772114313288498
20
-12.358059666743404
10
-87.632722169333746
20
-11.377085903371666
10
-87.343156122972715
20
-9.4185737057162502
10
-87.199247934181372
20
-8.4735666359617117
10
-86.98124232501732
20
-7.5073615428323492
10
-86.689704024742994
20
-6.1019226442025509
10
-86.315380325563751
20
-4.9040526924190919
10
-86.127750037577883
20
-4.2882641383565652
10
-85.64590974217316
20
-2.7531612489195991
10
-85.05366634409468
20
-1.3057808425835684
10
-84.864438630717984
20
-0.82564626543441344
10
-84.386744790882091
20
0.30365429327808474
10
-84.02865358484209
20
1.04776341771404
10
-83.604161271451602
20
1.9510873291067572
10
-83.392847679025181
20
2.2389676185587919
10
-83.063302092012378
20
2.8456094702080508
10
-82.742810027474491
20
3.4441731912806564
10
-82.505773940981356
20
3.8356886200679705
10
-82.064536380241009
20
4.4950521020201935
10
-81.782531933312072
20
5.075370096445992
0
LWPOLYLINE
5
101
100
AcDbEntity
8
0
100
AcDbPolyline
90
152
70
1
43
0.0
10
-65.203563103691252
20
22.050596240299384
10
-65.751694433983886
20
21.795974509469396
10
-68.631750286988023
20
20.28144083839123
10
-71.165940093109995
20
18.785413960014406
10
-71.442464026087123
20
18.616995893306818
10
-73.652824620074028
20
16.924543364782245
10
-75.993611643322922
20
15.054983543396904
10
-76.117455954651376
20
14.953077839096567
10
-76.193000155582254
20
14.887909558958496
10
-76.251514553170395
20
14.833280296413848
10
-77.798742983930651
20
13.365304420064314
10
-78.466645667604055
20
12.691467869606036
10
-80.213423166569996
20
10.741173097854503
10
-80.497216923247933
20
10.418024834267204
10
-80.5074141705242
20
10.405837058535498
10
-82.539034637184841
20
7.711219492968012
10
-82.576098831604639
20
7.6489018095222816
10
-82.775281679452917
20
7.3520543768027231
10
-84.991468792803147
20
3.6469151170113494
10
-85.389876138177073
20
2.8905679961748292
10
-86.665011610378272
20
0.081820124178683673
10
-86.887578592424944
20
-0.39096636172261601
10
-87.099708195428889
20
-0.97518115674988637
10
-88.170643439850807
20
-4.0173890785719841
10
-88.236537247398502
20
-4.3235126719499988
10
-88.339034665138612
20
-4.6408679180690324
10
-89.195262037130789
20
-8.2051242182452615
10
-89.290786216032728
20
-8.8481341977841286
10
-89.809505112885617
20
-12.929143488749297
10
-89.864586249975758
20
-13.5846457194995
10
-89.999464482387509
20
-15.46771667858116
10
-89.97591926261228
20
-18.696033840416387
10
-89.886655927596934
20
-20.191295382105171
10
-89.831578521968098
20
-20.664912014345965
10
-89.272533324094425
20
-24.247731568296427
10
-88.738648451122302
20
-26.707277443026594
10
-88.653324232823337
20
-27.07013091515012
10
-88.027704032078802
20
-29.406180041898054
10
-87.96618289769583
20
-29.587170955692908
10
-86.34908284399549
20
-33.971437118765586
10
-86.340371967609769
20
-33.993001777576083
10
-85.742340428696792
20
-35.197657839377129
10
-84.517364514527046
20
-37.619526397631212
10
-84.442979948389819
20
-37.73970250696734
10
-80.501825919086258
20
-43.390897837640935
10
-80.197774236936652
20
-43.750566626410262
10
-79.707027741878363
20
-44.285663815409364
10
-77.36198327135466
20
-46.775364762994407
10
-75.340969720250342
20
-48.690458297280841
10
-74.520614452161468
20
-49.357257032046263
10
-72.386335595991241
20
-50.943547056591342
10
-71.3458578194859
20
-51.627148243423242
10
-68.938841826662639
20
-53.316582877497851
10
-67.853349465265921
20
-53.875475827393366
10
-63.148429955544472
20
-56.118673230766305
10
-62.10941945847874
20
-56.524897226486132
10
-60.056116068078438
20
-57.274426734073131
10
-58.982519257938463
20
-57.572353966833532
10
-56.208333510613464
20
-58.349079108912733
10
-55.12266228490855
20
-58.575439149689927
10
-53.814403173444475
20
-58.742486057325124
10
-52.180265370569543
20
-59.04598547470502
10
-50.501357421083462
20
-59.165323414962138
10
-49.180507630641522
20
-59.345515794370101
10
-48.489619516913358
20
-59.367054753428128
10
-48.302622723614164
20
-59.139087001377185
10
-48.089485347610676
20
-59.387662115255139
10
-48.010116269715027
20
-59.400074101620532
10
-47.40658613007114
20
-59.586274291767012
10
-45.579322917264527
20
-59.495027204562795
10
-44.336138711192703
20
-59.337777657854048
10
-43.249166738398102
20
-59.185233691360878
10
-40.941773471828725
20
-58.787390715346319
10
-38.748653034922029
20
-58.300027661378934
10
-37.508002516310725
20
-57.985066141812709
10
-34.150397693310673
20
-56.888748855973539
10
-33.609056093670098
20
-56.700799732583967
10
-33.345220504804026
20
-56.597124496479196
10
-31.818553531633572
20
-55.859273238603542
10
-30.618760966940229
20
-55.377017085846596
10
-28.492962839926911
20
-54.247706063905248
10
-25.950805900119494
20
-52.867010470258897
10
-24.85766596588531
20
-52.158309005296168
10
-22.305687314355428
20
-50.359241155186098
10
-21.737222221159453
20
-49.913748709724132
10
-21.151822021663591
20
-49.423435316149821
10
-19.552871614809838
20
-48.035762037113628
10
-17.582066050769548
20
-46.128173361229763
10
-16.936475613546499
20
-45.501069098858913
10
-16.073105804224237
20
-44.508903731033811
10
-14.729334400690012
20
-42.860663184605116
10
-13.85146372396874
20
-41.650895966926598
10
-12.480344561526039
20
-39.777483744912409
10
-12.27770173841969
20
-39.46690742033298
10
-11.088473502670809
20
-37.442260631889638
10
-10.597181219893795
20
-36.433995604150418
10
-10.055800197722057
20
-35.368867918049204
10
-8.4883030450873438
20
-32.024993779615038
10
-8.3404403974708909
20
-31.622628357756888
10
-8.151922267680952
20
-31.039452574898931
10
-7.2305304158136714
20
-28.182258765385427
10
-6.6609439980906284
20
-26.126550590209909
10
-6.6155843602565723
20
-25.936722611590302
10
-6.6002853244990263
20
-25.87247551403566
10
-6.0378681671014593
20
-22.356142322027285
10
-5.7495792533348453
20
-20.676371052825445
10
-5.7465475568549724
20
-20.628726721290928
10
-5.6588539092827519
20
-17.77819109244469
10
-5.6135636740921582
20
-15.799848172330037
10
-5.6374022008100697
20
-14.670904553037246
10
-5.9535657241026723
20
-11.683536958790546
10
-6.0689798851190115
20
-10.327889656223736
10
-6.3362599220530136
20
-8.3964391917484775
10
-6.7114982318675453
20
-6.7430166202284267
10
-7.4923342607614165
20
-3.9046823041174616
10
-8.6550238082005766
20
-0.56473316892660941
10
-9.0111429970679318
20
0.37203007741027472
10
-9.8486858514971658
20
2.0683704522586117
10
-11.506812418300267
20
5.2814135129784203
10
-11.589670478304253
20
5.4266915976158554
10
-11.602013409216042
20
5.4453399806402007
10
-12.992108526281868
20
7.5109732310119348
10
-15.302208471800494
20
10.53751059292799
10
-15.604479772581008
20
10.896421500610334
10
-18.305217636003452
20
13.651893303435065
10
-19.407329040430394
20
14.739193221349112
10
-21.217334534134068
20
16.178715057025666
10
-23.667849929558802
20
18.083523446952611
10
-24.241462113857864
20
18.482023913264328
10
-26.519217571157952
20
19.868337831622437
10
-29.08936890901515
20
21.310041877793712
10
-29.611648571840124
20
21.579324359126044
10
-29.898641288489699
20
21.722812112227299
10
-32.18645519601084
20
22.632264345692757
10
-34.699524576608127
20
23.573004363322468
10
-36.318434187924254
20
24.094439136423837
10
-38.064192280810694
20
24.586565822535739
10
-38.406636812264288
20
24.655762261885744
10
-39.147290080325348
20
24.801527932073817
10
-43.106108666117848
20
25.463257441252757
10
-43.938844889907514
20
25.542478830610023
10
-45.934843309823833
20
25.660000450260231
10
-47.358153886046004
20
25.666291913107617
10
-49.879166309927037
20
25.706984879714327
10
-50.37349653932641
20
25.690824816151974
10
-53.02325585571112
20
25.375741909494188
10
-55.430462536953229
20
25.006765828336125
10
-57.106443470088649
20
24.723304942063482
10
-59.31518112661378
20
24.192567301800374
10
-60.086489087541111
20
23.962493957623046
10
-60.694505907070486
20
23.772031818266115
10
-63.260811083890658
20
22.844028397997498
0
ENDSEC
0
SECTION
2
OBJECTS
0
DICTIONARY
5
C
100
AcDbDictionary
3
ACAD_GROUP
350
D
3
ACAD_MLINESTYLE
350
17
0
DICTIONARY
5
D
100
AcDbDictionary
0
DICTIONARY
5
1A
330
C
100
AcDbDictionary
0
DICTIONARY
5
17
100
AcDbDictionary
0
ENDSEC
0
EOF
